<?xml version="1.0" encoding="UTF-8"?>
<svg xmlns="http://www.w3.org/2000/svg" xmlns:xlink="http://www.w3.org/1999/xlink" width="375pt" height="374.999991pt" viewBox="0 0 375 374.999991" version="1.2">
<g id="surface1">
<path style=" stroke:none;fill-rule:nonzero;fill:rgb(6.269836%,5.879211%,5.099487%);fill-opacity:1;" d="M 331.140625 232.160156 C 331.101562 232.222656 331.074219 232.300781 331.035156 232.367188 C 330.3125 233.960938 313.324219 270.121094 273.632812 255.820312 C 299.523438 222.3125 308.242188 175.625 311.105469 144.832031 C 316.976562 147.019531 332.621094 154.203125 339.796875 170.578125 C 346.878906 186.734375 343.960938 207.445312 331.140625 232.160156 Z M 243.058594 134.226562 C 227.296875 130.339844 211.957031 123.941406 197.472656 115.199219 L 197.1875 115.03125 C 191.847656 111.867188 184.675781 111.867188 179.347656 115.019531 L 179.011719 115.214844 C 164.550781 123.941406 149.226562 130.339844 133.476562 134.226562 C 119.441406 137.6875 106.050781 140.40625 93.691406 142.308594 C 91.242188 142.683594 88.917969 141.007812 88.53125 138.539062 C 88.160156 136.078125 89.847656 133.773438 92.3125 133.390625 C 104.414062 131.523438 117.519531 128.859375 131.296875 125.460938 C 146.167969 121.789062 160.65625 115.742188 174.34375 107.476562 L 174.714844 107.257812 C 182.867188 102.429688 193.652344 102.429688 201.820312 107.269531 L 202.128906 107.449219 C 215.867188 115.742188 230.351562 121.789062 245.226562 125.460938 C 259.003906 128.859375 272.109375 131.523438 284.210938 133.390625 C 286.671875 133.773438 288.363281 136.078125 287.988281 138.539062 C 287.640625 140.777344 285.71875 142.375 283.527344 142.375 C 283.292969 142.375 283.0625 142.347656 282.828125 142.308594 C 270.472656 140.40625 257.09375 137.6875 243.058594 134.226562 Z M 256.824219 161.503906 C 256.359375 163.625 254.488281 165.070312 252.410156 165.070312 C 252.089844 165.070312 251.765625 165.03125 251.445312 164.964844 C 246.476562 163.882812 241.382812 162.699219 236.3125 161.453125 C 221.453125 157.78125 206.851562 152.195312 192.90625 144.832031 C 190.003906 143.300781 186.53125 143.300781 183.617188 144.832031 C 169.699219 152.195312 155.082031 157.78125 140.210938 161.453125 C 135.125 162.699219 130.03125 163.882812 125.078125 164.964844 C 122.640625 165.492188 120.226562 163.949219 119.699219 161.503906 C 119.167969 159.070312 120.71875 156.664062 123.15625 156.136719 C 128.03125 155.078125 133.035156 153.921875 138.042969 152.683594 C 152.191406 149.195312 166.113281 143.867188 179.386719 136.851562 C 184.945312 133.917969 191.589844 133.917969 197.136719 136.851562 C 210.421875 143.867188 224.34375 149.195312 238.480469 152.683594 C 243.472656 153.921875 248.492188 155.078125 253.367188 156.136719 C 255.804688 156.664062 257.351562 159.070312 256.824219 161.503906 Z M 43.964844 232.367188 C 43.925781 232.300781 43.898438 232.222656 43.859375 232.160156 C 31.050781 207.496094 28.136719 186.808594 35.167969 170.667969 C 43.023438 152.621094 61.367188 145.644531 65.363281 144.316406 C 68.175781 174.96875 76.78125 221.707031 102.542969 255.367188 C 62.191406 270.765625 44.699219 233.960938 43.964844 232.367188 Z M 348.089844 166.960938 C 338.273438 144.5625 315.917969 136.789062 311.855469 135.527344 C 312.046875 132.539062 312.175781 129.773438 312.28125 127.289062 C 312.589844 119.371094 306.734375 112.5625 298.851562 111.648438 C 281.746094 109.652344 264.394531 105.957031 250.875 102.625 C 237.988281 99.445312 225.734375 94.207031 214.371094 87.34375 C 214.203125 87.242188 214.023438 87.136719 213.855469 87.035156 C 198.117188 77.726562 178.40625 77.726562 162.667969 87.035156 C 162.5 87.136719 162.332031 87.242188 162.152344 87.34375 C 150.789062 94.207031 138.53125 99.445312 125.644531 102.625 C 112.125 105.957031 94.777344 109.652344 77.671875 111.648438 C 69.789062 112.5625 63.933594 119.371094 64.242188 127.289062 C 64.332031 129.683594 64.476562 132.332031 64.65625 135.203125 C 64.359375 135.21875 64.0625 135.269531 63.777344 135.347656 C 62.707031 135.640625 37.5 142.800781 26.910156 166.960938 C 18.691406 185.714844 21.671875 209.027344 35.796875 236.253906 C 36.972656 238.6875 51.9375 268.242188 83.644531 268.242188 C 90.816406 268.242188 98.867188 266.722656 107.792969 263.027344 C 108.074219 262.914062 108.320312 262.785156 108.566406 262.617188 C 126.742188 282.839844 152.308594 296.792969 188.261719 296.792969 C 223.917969 296.792969 249.339844 283.070312 267.492188 263.144531 C 276.316406 266.75 284.25 268.242188 291.355469 268.242188 C 323.0625 268.230469 338.027344 238.699219 339.203125 236.253906 C 353.328125 209.027344 356.308594 185.714844 348.089844 166.960938 "/>
</g>
</svg>
