<?xml version="1.0" encoding="UTF-8"?>
<svg xmlns="http://www.w3.org/2000/svg" xmlns:xlink="http://www.w3.org/1999/xlink" width="375pt" height="374.999991pt" viewBox="0 0 375 374.999991" version="1.2">
<defs>
<clipPath id="clip1">
  <path d="M 261 37.5 L 326 37.5 L 326 102 L 261 102 Z M 261 37.5 "/>
</clipPath>
<clipPath id="clip2">
  <path d="M 234 101 L 352.179688 101 L 352.179688 317.917969 L 234 317.917969 Z M 234 101 "/>
</clipPath>
<clipPath id="clip3">
  <path d="M 50 37.5 L 114 37.5 L 114 102 L 50 102 Z M 50 37.5 "/>
</clipPath>
<clipPath id="clip4">
  <path d="M 22.929688 101 L 141 101 L 141 317.917969 L 22.929688 317.917969 Z M 22.929688 101 "/>
</clipPath>
</defs>
<g id="surface1">
<path style=" stroke:none;fill-rule:nonzero;fill:rgb(0%,0%,0%);fill-opacity:1;" d="M 224.078125 190.296875 C 226.605469 190.296875 228.652344 188.253906 228.652344 185.730469 L 228.652344 147.421875 C 228.652344 144.898438 226.605469 142.851562 224.078125 142.851562 C 221.550781 142.851562 219.503906 144.898438 219.503906 147.421875 L 219.503906 159.742188 L 211.324219 153.773438 C 209.695312 152.582031 207.398438 152.941406 206.210938 154.570312 C 205.015625 156.199219 205.375 158.488281 207.007812 159.679688 L 211.449219 162.917969 L 162.363281 162.917969 L 166.804688 159.679688 C 168.4375 158.488281 168.792969 156.199219 167.601562 154.570312 C 166.410156 152.941406 164.121094 152.582031 162.488281 153.773438 L 155.726562 158.710938 L 155.726562 147.421875 C 155.726562 144.898438 153.675781 142.851562 151.148438 142.851562 C 148.625 142.851562 146.574219 144.894531 146.574219 147.421875 L 146.574219 185.730469 C 146.574219 188.25 148.621094 190.296875 151.148438 190.296875 C 153.675781 190.296875 155.726562 188.253906 155.726562 185.730469 L 155.726562 174.4375 L 162.488281 179.375 C 163.136719 179.847656 163.894531 180.078125 164.644531 180.078125 C 165.773438 180.078125 166.886719 179.554688 167.601562 178.578125 C 168.792969 176.949219 168.4375 174.660156 166.804688 173.46875 L 162.363281 170.230469 L 211.449219 170.230469 L 207.007812 173.46875 C 205.375 174.660156 205.015625 176.949219 206.210938 178.578125 C 206.925781 179.558594 208.039062 180.078125 209.167969 180.078125 C 209.917969 180.078125 210.671875 179.847656 211.324219 179.375 L 219.503906 173.40625 L 219.503906 185.726562 C 219.503906 188.253906 221.550781 190.296875 224.078125 190.296875 Z M 224.078125 190.296875 "/>
<g clip-path="url(#clip1)" clip-rule="nonzero">
<path style=" stroke:none;fill-rule:nonzero;fill:rgb(0%,0%,0%);fill-opacity:1;" d="M 325.078125 69.320312 C 325.078125 51.847656 310.847656 37.636719 293.351562 37.636719 C 275.859375 37.636719 261.628906 51.847656 261.628906 69.320312 C 261.628906 86.789062 275.859375 101.003906 293.351562 101.003906 C 310.847656 101.003906 325.078125 86.789062 325.078125 69.320312 Z M 272.605469 69.320312 C 272.605469 57.894531 281.914062 48.601562 293.351562 48.601562 C 304.792969 48.601562 314.097656 57.894531 314.097656 69.320312 C 314.097656 80.742188 304.792969 90.039062 293.351562 90.039062 C 281.914062 90.039062 272.605469 80.742188 272.605469 69.320312 Z M 272.605469 69.320312 "/>
</g>
<g clip-path="url(#clip2)" clip-rule="nonzero">
<path style=" stroke:none;fill-rule:nonzero;fill:rgb(0%,0%,0%);fill-opacity:1;" d="M 278.757812 317.820312 C 284.507812 317.820312 289.6875 315.378906 293.351562 311.5 C 297.015625 315.378906 302.195312 317.820312 307.945312 317.820312 C 319.019531 317.820312 328.027344 308.824219 328.027344 297.761719 L 328.027344 224.5 C 330.082031 225.339844 332.320312 225.820312 334.671875 225.820312 C 344.390625 225.820312 352.296875 217.925781 352.296875 208.222656 L 352.296875 139.734375 C 352.296875 118.472656 334.976562 101.171875 313.683594 101.171875 L 273.019531 101.171875 C 251.726562 101.171875 234.40625 118.472656 234.40625 139.734375 L 234.40625 208.222656 C 234.40625 217.925781 242.316406 225.820312 252.03125 225.820312 C 254.371094 225.820312 256.605469 225.316406 258.675781 224.476562 L 258.675781 297.761719 C 258.675781 308.820312 267.6875 317.820312 278.757812 317.820312 Z M 252.03125 214.855469 C 248.367188 214.855469 245.386719 211.878906 245.386719 208.222656 L 245.386719 139.734375 C 245.386719 124.515625 257.78125 112.136719 273.019531 112.136719 L 313.683594 112.136719 C 328.921875 112.136719 341.316406 124.519531 341.316406 139.734375 L 341.316406 208.222656 C 341.316406 211.878906 338.335938 214.855469 334.671875 214.855469 C 331.007812 214.855469 328.027344 211.878906 328.027344 208.222656 C 328.027344 207.101562 327.6875 206.066406 327.113281 205.199219 L 327.113281 164.25 C 327.113281 161.726562 325.066406 159.683594 322.539062 159.683594 C 320.011719 159.683594 317.964844 161.726562 317.964844 164.25 L 317.964844 205.199219 C 317.386719 206.066406 317.050781 207.101562 317.050781 208.222656 C 317.050781 208.445312 317.105469 208.652344 317.113281 208.875 C 317.089844 209.09375 317.050781 209.304688 317.050781 209.53125 L 317.050781 297.761719 C 317.050781 302.777344 312.964844 306.855469 307.945312 306.855469 C 302.925781 306.855469 298.84375 302.777344 298.84375 297.761719 C 298.84375 296.644531 298.503906 295.605469 297.925781 294.738281 L 297.925781 211.605469 C 297.925781 209.082031 295.878906 207.039062 293.351562 207.039062 C 290.824219 207.039062 288.777344 209.082031 288.777344 211.605469 L 288.777344 294.738281 C 288.203125 295.605469 287.863281 296.644531 287.863281 297.761719 C 287.863281 302.777344 283.777344 306.855469 278.757812 306.855469 C 273.738281 306.855469 269.652344 302.777344 269.652344 297.761719 L 269.652344 212.601562 C 269.652344 211.355469 269.222656 210.21875 268.519531 209.300781 C 268.609375 208.945312 268.738281 208.605469 268.738281 208.222656 L 268.738281 201.5625 C 268.738281 199.039062 266.691406 196.992188 264.164062 196.992188 C 261.636719 196.992188 259.585938 199.039062 259.585938 201.5625 L 259.585938 208.222656 C 259.585938 208.226562 259.589844 208.226562 259.589844 208.230469 C 259.046875 208.800781 258.609375 209.484375 258.347656 210.28125 C 257.457031 213.019531 254.917969 214.855469 252.03125 214.855469 Z M 252.03125 214.855469 "/>
</g>
<path style=" stroke:none;fill-rule:nonzero;fill:rgb(0%,0%,0%);fill-opacity:1;" d="M 264.164062 192.5 C 266.691406 192.5 268.742188 190.453125 268.742188 187.929688 L 268.742188 146.394531 C 268.742188 143.871094 266.691406 141.824219 264.167969 141.824219 C 261.640625 141.824219 259.589844 143.871094 259.589844 146.394531 L 259.589844 187.929688 C 259.589844 190.453125 261.636719 192.5 264.164062 192.5 Z M 264.164062 192.5 "/>
<path style=" stroke:none;fill-rule:nonzero;fill:rgb(0%,0%,0%);fill-opacity:1;" d="M 322.539062 155.796875 C 325.066406 155.796875 327.113281 153.753906 327.113281 151.230469 L 327.113281 146.394531 C 327.113281 143.871094 325.066406 141.824219 322.539062 141.824219 C 320.011719 141.824219 317.964844 143.871094 317.964844 146.394531 L 317.964844 151.230469 C 317.964844 153.753906 320.011719 155.796875 322.539062 155.796875 Z M 322.539062 155.796875 "/>
<g clip-path="url(#clip3)" clip-rule="nonzero">
<path style=" stroke:none;fill-rule:nonzero;fill:rgb(0%,0%,0%);fill-opacity:1;" d="M 50.148438 69.320312 C 50.148438 86.789062 64.378906 101.003906 81.875 101.003906 C 99.367188 101.003906 113.597656 86.789062 113.597656 69.320312 C 113.597656 51.847656 99.367188 37.636719 81.875 37.636719 C 64.378906 37.636719 50.148438 51.847656 50.148438 69.320312 Z M 102.621094 69.320312 C 102.621094 80.742188 93.3125 90.039062 81.875 90.039062 C 70.433594 90.039062 61.128906 80.742188 61.128906 69.320312 C 61.128906 57.894531 70.433594 48.601562 81.875 48.601562 C 93.3125 48.601562 102.621094 57.894531 102.621094 69.320312 Z M 102.621094 69.320312 "/>
</g>
<path style=" stroke:none;fill-rule:nonzero;fill:rgb(0%,0%,0%);fill-opacity:1;" d="M 52.6875 158.84375 C 55.214844 158.84375 57.261719 156.796875 57.261719 154.273438 L 57.261719 146.394531 C 57.261719 143.871094 55.214844 141.824219 52.6875 141.824219 C 50.160156 141.824219 48.113281 143.871094 48.113281 146.394531 L 48.113281 154.273438 C 48.113281 156.796875 50.160156 158.84375 52.6875 158.84375 Z M 52.6875 158.84375 "/>
<g clip-path="url(#clip4)" clip-rule="nonzero">
<path style=" stroke:none;fill-rule:nonzero;fill:rgb(0%,0%,0%);fill-opacity:1;" d="M 40.550781 225.820312 C 42.90625 225.820312 45.144531 225.339844 47.199219 224.5 L 47.199219 297.761719 C 47.199219 308.820312 56.207031 317.820312 67.28125 317.820312 C 73.03125 317.820312 78.210938 315.378906 81.875 311.5 C 85.539062 315.378906 90.71875 317.820312 96.464844 317.820312 C 107.539062 317.820312 116.550781 308.824219 116.550781 297.761719 L 116.550781 224.5 C 118.605469 225.339844 120.84375 225.820312 123.195312 225.820312 C 132.910156 225.820312 140.816406 217.925781 140.816406 208.222656 L 140.816406 139.734375 C 140.816406 118.472656 123.496094 101.171875 102.207031 101.171875 L 61.542969 101.171875 C 40.25 101.171875 22.929688 118.472656 22.929688 139.734375 L 22.929688 208.222656 C 22.929688 217.925781 30.835938 225.820312 40.550781 225.820312 Z M 33.910156 139.734375 C 33.910156 124.515625 46.304688 112.136719 61.542969 112.136719 L 102.207031 112.136719 C 117.445312 112.136719 129.839844 124.519531 129.839844 139.734375 L 129.839844 208.222656 C 129.839844 211.878906 126.859375 214.855469 123.195312 214.855469 C 119.53125 214.855469 116.550781 211.878906 116.550781 208.222656 C 116.550781 207.101562 116.210938 206.066406 115.636719 205.199219 L 115.636719 199.964844 C 115.636719 197.441406 113.589844 195.394531 111.0625 195.394531 C 108.535156 195.394531 106.484375 197.4375 106.484375 199.960938 L 106.484375 205.199219 C 105.910156 206.066406 105.570312 207.101562 105.570312 208.222656 C 105.570312 208.445312 105.628906 208.652344 105.636719 208.875 C 105.609375 209.09375 105.570312 209.304688 105.570312 209.53125 L 105.570312 297.761719 C 105.570312 302.777344 101.484375 306.855469 96.464844 306.855469 C 91.445312 306.855469 87.363281 302.777344 87.363281 297.761719 C 87.363281 296.644531 87.023438 295.605469 86.445312 294.738281 L 86.445312 211.605469 C 86.445312 209.082031 84.398438 207.039062 81.871094 207.039062 C 79.34375 207.039062 77.296875 209.082031 77.296875 211.605469 L 77.296875 294.738281 C 76.722656 295.605469 76.382812 296.644531 76.382812 297.761719 C 76.382812 302.777344 72.300781 306.855469 67.28125 306.855469 C 62.261719 306.855469 58.175781 302.777344 58.175781 297.761719 L 58.175781 209.53125 C 58.175781 209.308594 58.136719 209.09375 58.109375 208.875 C 58.117188 208.652344 58.175781 208.445312 58.175781 208.222656 C 58.175781 207.101562 57.835938 206.066406 57.261719 205.199219 L 57.261719 166.457031 C 57.261719 163.933594 55.214844 161.890625 52.6875 161.890625 C 50.160156 161.890625 48.109375 163.933594 48.109375 166.457031 L 48.109375 205.199219 C 47.535156 206.066406 47.195312 207.101562 47.195312 208.222656 C 47.195312 211.878906 44.214844 214.855469 40.550781 214.855469 C 36.886719 214.855469 33.90625 211.878906 33.90625 208.222656 L 33.90625 139.734375 Z M 33.910156 139.734375 "/>
</g>
<path style=" stroke:none;fill-rule:nonzero;fill:rgb(0%,0%,0%);fill-opacity:1;" d="M 111.0625 191.433594 C 113.585938 191.433594 115.636719 189.386719 115.636719 186.863281 L 115.636719 146.394531 C 115.636719 143.871094 113.589844 141.824219 111.0625 141.824219 C 108.535156 141.824219 106.484375 143.871094 106.484375 146.394531 L 106.484375 186.863281 C 106.488281 189.386719 108.535156 191.433594 111.0625 191.433594 Z M 111.0625 191.433594 "/>
</g>
</svg>
