<svg width="49" height="43" viewBox="0 0 49 43" fill="none" xmlns="http://www.w3.org/2000/svg">
<path d="M20.0901 3.72855C19.8698 3.72855 19.6766 4.02148 19.6766 4.3559C19.6766 4.68971 19.8698 4.98264 20.0901 4.98264H33.4193C33.4611 4.98264 33.5022 4.98822 33.5414 4.99998L38.6209 6.53401C38.627 6.53587 38.6331 6.53772 38.6393 6.5402C38.843 6.61142 39.0528 6.41324 39.1184 6.11845C39.2024 5.73944 39.0239 5.39139 38.8111 5.31645C37.0541 4.74297 34.1714 3.81525 33.7923 3.72855H20.0901ZM38.7258 7.40909C38.6049 7.40909 38.4853 7.38927 38.3694 7.34964L33.3574 5.83667H20.0901C19.3944 5.83667 18.8282 5.17215 18.8282 4.3559C18.8282 3.53904 19.3944 2.8739 20.0901 2.8739H33.8267C33.9101 2.8739 34.0837 2.8739 39.0816 4.50702C39.7429 4.73988 40.1183 5.52825 39.946 6.30548C39.8006 6.95576 39.2994 7.40909 38.7258 7.40909Z" fill="#151416"/>
<path d="M23.7138 0.954C23.1678 0.954 22.723 1.40176 22.723 1.95232V9.66208C22.723 10.2126 23.1678 10.6604 23.7138 10.6604H25.5431C26.0897 10.6604 26.5345 10.2126 26.5345 9.66208V1.95232C26.5345 1.40176 26.0897 0.954 25.5431 0.954H23.7138ZM25.5431 11.5144H23.7138C22.6997 11.5144 21.8746 10.6833 21.8746 9.66208V1.95232C21.8746 0.931086 22.6997 0.0999756 23.7138 0.0999756H25.5431C26.5578 0.0999756 27.3823 0.931086 27.3823 1.95232V9.66208C27.3823 10.6833 26.5578 11.5144 25.5431 11.5144Z" fill="#151416"/>
<path d="M18.6815 11.8495C16.9644 11.8495 15.5676 13.2566 15.5676 14.9863V39.0092C15.5676 40.739 16.9644 42.146 18.6815 42.146H30.5759C32.293 42.146 33.6898 40.739 33.6898 39.0092V14.9863C33.6898 13.2566 32.293 11.8495 30.5759 11.8495H18.6815ZM30.5759 43H18.6815C16.497 43 14.7192 41.2102 14.7192 39.0092V14.9863C14.7192 12.7853 16.497 10.9955 18.6815 10.9955H30.5759C32.7604 10.9955 34.5376 12.7853 34.5376 14.9863V39.0092C34.5376 41.2102 32.7604 43 30.5759 43Z" fill="#151416"/>
<path d="M19.054 35.2296H30.1871V18.8898H19.054V35.2296ZM30.611 36.0842H18.6295C18.3957 36.0842 18.2056 35.8929 18.2056 35.6575V18.4625C18.2056 18.2265 18.3957 18.0358 18.6295 18.0358H30.611C30.8453 18.0358 31.0349 18.2265 31.0349 18.4625V35.6575C31.0349 35.8929 30.8453 36.0842 30.611 36.0842Z" fill="#151416"/>
<path d="M39.5631 11.9472C38.9546 13.057 38.0712 14.8443 38.0712 15.655C38.0712 16.753 38.7405 17.6461 39.5631 17.6461C40.3858 17.6461 41.0551 16.753 41.0551 15.655C41.0551 14.8443 40.1717 13.057 39.5631 11.9472ZM39.5631 18.5001C38.2724 18.5001 37.2228 17.2237 37.2228 15.655C37.2228 14.2424 38.9969 11.209 39.1993 10.8678C39.2754 10.7389 39.4141 10.6597 39.5631 10.6597C39.7122 10.6597 39.8502 10.7389 39.9269 10.8678C40.1294 11.209 41.9029 14.2424 41.9029 15.655C41.9029 17.2237 40.8532 18.5001 39.5631 18.5001Z" fill="#151416"/>
</svg>
