<?xml version="1.0" encoding="UTF-8"?>
<svg xmlns="http://www.w3.org/2000/svg" xmlns:xlink="http://www.w3.org/1999/xlink" width="375pt" height="374.999991pt" viewBox="0 0 375 374.999991" version="1.2">
<defs>
<clipPath id="clip1">
  <path d="M 170 37.5 L 206 37.5 L 206 110 L 170 110 Z M 170 37.5 "/>
</clipPath>
<clipPath id="clip2">
  <path d="M 125 106 L 252 106 L 252 308.085938 L 125 308.085938 Z M 125 106 "/>
</clipPath>
<clipPath id="clip3">
  <path d="M 32 185 L 343.574219 185 L 343.574219 287 L 32 287 Z M 32 185 "/>
</clipPath>
</defs>
<g id="surface1">
<path style=" stroke:none;fill-rule:nonzero;fill:rgb(100%,100%,100%);fill-opacity:1;" d="M 279.632812 67.859375 C 279.632812 67.859375 248.214844 57.691406 247.003906 57.691406 L 159.535156 57.691406 C 156.589844 57.691406 154.199219 60.667969 154.199219 64.34375 C 154.199219 68.011719 156.589844 70.988281 159.535156 70.988281 L 244.410156 70.988281 L 276.757812 80.660156 C 279.59375 81.652344 282.539062 79.585938 283.332031 76.050781 C 284.125 72.515625 282.46875 68.847656 279.632812 67.859375 "/>
<path style=" stroke:none;fill-rule:nonzero;fill:rgb(10.198975%,9.408569%,10.978699%);fill-opacity:1;" d="M 159.535156 60.386719 C 158.132812 60.386719 156.902344 62.234375 156.902344 64.34375 C 156.902344 66.449219 158.132812 68.296875 159.535156 68.296875 L 244.410156 68.296875 C 244.675781 68.296875 244.9375 68.332031 245.1875 68.40625 L 277.53125 78.082031 C 277.570312 78.09375 277.609375 78.105469 277.648438 78.121094 C 278.945312 78.570312 280.28125 77.320312 280.699219 75.460938 C 281.234375 73.070312 280.097656 70.875 278.742188 70.402344 C 267.554688 66.785156 249.199219 60.933594 246.785156 60.386719 Z M 278.199219 83.601562 C 277.429688 83.601562 276.667969 83.476562 275.929688 83.226562 L 244.015625 73.683594 L 159.535156 73.683594 C 155.105469 73.683594 151.5 69.492188 151.5 64.34375 C 151.5 59.191406 155.105469 54.996094 159.535156 54.996094 L 247.003906 54.996094 C 247.535156 54.996094 248.640625 54.996094 280.464844 65.296875 C 284.675781 66.765625 287.066406 71.738281 285.96875 76.640625 C 285.042969 80.742188 281.851562 83.601562 278.199219 83.601562 "/>
<path style=" stroke:none;fill-rule:nonzero;fill:rgb(100%,100%,100%);fill-opacity:1;" d="M 203.269531 97.808594 C 203.269531 102.777344 199.234375 106.800781 194.257812 106.800781 L 182.609375 106.800781 C 177.632812 106.800781 173.601562 102.777344 173.601562 97.808594 L 173.601562 49.183594 C 173.601562 44.21875 177.632812 40.191406 182.609375 40.191406 L 194.257812 40.191406 C 199.234375 40.191406 203.269531 44.21875 203.269531 49.183594 L 203.269531 97.808594 "/>
<g clip-path="url(#clip1)" clip-rule="nonzero">
<path style=" stroke:none;fill-rule:nonzero;fill:rgb(10.198975%,9.408569%,10.978699%);fill-opacity:1;" d="M 182.609375 42.886719 C 179.132812 42.886719 176.300781 45.710938 176.300781 49.183594 L 176.300781 97.8125 C 176.300781 101.285156 179.132812 104.109375 182.609375 104.109375 L 194.257812 104.109375 C 197.738281 104.109375 200.570312 101.285156 200.570312 97.8125 L 200.570312 49.183594 C 200.570312 45.710938 197.738281 42.886719 194.257812 42.886719 Z M 194.257812 109.496094 L 182.609375 109.496094 C 176.152344 109.496094 170.898438 104.253906 170.898438 97.8125 L 170.898438 49.183594 C 170.898438 42.742188 176.152344 37.5 182.609375 37.5 L 194.257812 37.5 C 200.71875 37.5 205.96875 42.742188 205.96875 49.183594 L 205.96875 97.8125 C 205.96875 104.253906 200.71875 109.496094 194.257812 109.496094 "/>
</g>
<path style=" stroke:none;fill-rule:nonzero;fill:rgb(100%,100%,100%);fill-opacity:1;" d="M 215.984375 116.042969 C 215.984375 128.453125 205.898438 138.519531 193.457031 138.519531 L 183.414062 138.519531 C 170.972656 138.519531 160.886719 128.453125 160.886719 116.042969 L 160.886719 89.101562 C 160.886719 76.6875 170.972656 72.96875 183.414062 72.96875 L 193.457031 72.96875 C 205.898438 72.96875 215.984375 76.6875 215.984375 89.101562 L 215.984375 116.042969 "/>
<path style=" stroke:none;fill-rule:nonzero;fill:rgb(10.198975%,9.408569%,10.978699%);fill-opacity:1;" d="M 183.414062 75.660156 C 165.640625 75.660156 163.585938 83.332031 163.585938 89.101562 L 163.585938 116.042969 C 163.585938 126.953125 172.480469 135.828125 183.414062 135.828125 L 193.457031 135.828125 C 204.390625 135.828125 213.285156 126.953125 213.285156 116.042969 L 213.285156 89.101562 C 213.285156 83.332031 211.230469 75.660156 193.457031 75.660156 Z M 193.457031 141.214844 L 183.414062 141.214844 C 169.503906 141.214844 158.1875 129.921875 158.1875 116.042969 L 158.1875 89.101562 C 158.1875 80.511719 162.5625 70.273438 183.414062 70.273438 L 193.457031 70.273438 C 214.308594 70.273438 218.683594 80.511719 218.683594 89.101562 L 218.683594 116.042969 C 218.683594 129.921875 207.367188 141.214844 193.457031 141.214844 "/>
<path style=" stroke:none;fill-rule:nonzero;fill:rgb(100%,100%,100%);fill-opacity:1;" d="M 248.832031 282.917969 C 248.832031 295.335938 238.746094 305.398438 226.304688 305.398438 L 150.566406 305.398438 C 138.125 305.398438 128.035156 295.335938 128.035156 282.917969 L 128.035156 131.394531 C 128.035156 118.980469 138.125 108.914062 150.566406 108.914062 L 226.304688 108.914062 C 238.746094 108.914062 248.832031 118.980469 248.832031 131.394531 L 248.832031 282.917969 "/>
<g clip-path="url(#clip2)" clip-rule="nonzero">
<path style=" stroke:none;fill-rule:nonzero;fill:rgb(10.198975%,9.408569%,10.978699%);fill-opacity:1;" d="M 150.566406 111.609375 C 139.632812 111.609375 130.738281 120.484375 130.738281 131.394531 L 130.738281 282.917969 C 130.738281 293.828125 139.632812 302.703125 150.566406 302.703125 L 226.304688 302.703125 C 237.238281 302.703125 246.132812 293.828125 246.132812 282.917969 L 246.132812 131.394531 C 246.132812 120.484375 237.238281 111.609375 226.304688 111.609375 Z M 226.304688 308.089844 L 150.566406 308.089844 C 136.65625 308.089844 125.335938 296.800781 125.335938 282.917969 L 125.335938 131.394531 C 125.335938 117.511719 136.65625 106.222656 150.566406 106.222656 L 226.304688 106.222656 C 240.214844 106.222656 251.53125 117.511719 251.53125 131.394531 L 251.53125 282.917969 C 251.53125 296.800781 240.214844 308.089844 226.304688 308.089844 "/>
</g>
<path style=" stroke:none;fill-rule:nonzero;fill:rgb(100%,100%,100%);fill-opacity:1;" d="M 226.527344 261.777344 L 150.234375 261.777344 L 150.234375 153.320312 L 226.527344 153.320312 L 226.527344 261.777344 "/>
<path style=" stroke:none;fill-rule:nonzero;fill:rgb(10.198975%,9.408569%,10.978699%);fill-opacity:1;" d="M 152.9375 259.078125 L 223.828125 259.078125 L 223.828125 156.015625 L 152.9375 156.015625 Z M 226.527344 264.46875 L 150.234375 264.46875 C 148.746094 264.46875 147.535156 263.261719 147.535156 261.777344 L 147.535156 153.320312 C 147.535156 151.832031 148.746094 150.628906 150.234375 150.628906 L 226.527344 150.628906 C 228.019531 150.628906 229.226562 151.832031 229.226562 153.320312 L 229.226562 261.777344 C 229.226562 263.261719 228.019531 264.46875 226.527344 264.46875 "/>
<path style=" stroke:none;fill-rule:nonzero;fill:rgb(100%,100%,100%);fill-opacity:1;" d="M 34.777344 217.984375 C 57.359375 217.984375 68.5625 219.261719 90.609375 215.445312 C 103.011719 213.296875 115.203125 205.8125 126.847656 201.101562 C 149.089844 192.105469 172.308594 194.050781 195.699219 198.429688 C 205.730469 200.308594 214.519531 202.03125 225.019531 201.5 C 232.839844 201.109375 244.421875 196.589844 251.675781 200.835938 C 260.699219 206.121094 254.183594 216.425781 247.40625 220.789062 C 235.996094 228.125 217.347656 227.554688 203.820312 227.554688 C 199.394531 227.554688 194.960938 227.554688 190.53125 227.554688 C 215.183594 227.445312 254.324219 235.777344 270.847656 226.894531 C 281.105469 221.375 304.074219 200.78125 306.695312 198.085938 C 320.9375 183.421875 340.929688 185.019531 340.917969 199.375 C 333.476562 212.628906 300.207031 246.398438 280.089844 263.582031 C 267.6875 274.171875 242.011719 282.242188 226.09375 282.855469 C 202.882812 283.746094 178.105469 284.242188 155.082031 281.789062 C 123.105469 278.386719 45.621094 274.453125 34.777344 279.664062 "/>
<g clip-path="url(#clip3)" clip-rule="nonzero">
<path style=" stroke:none;fill-rule:nonzero;fill:rgb(10.198975%,9.408569%,10.978699%);fill-opacity:1;" d="M 193.660156 286.28125 C 180.535156 286.28125 167.414062 285.8125 154.796875 284.46875 C 120.554688 280.820312 45.535156 277.488281 35.953125 282.09375 C 34.605469 282.742188 32.992188 282.175781 32.347656 280.832031 C 31.699219 279.492188 32.265625 277.882812 33.609375 277.238281 C 46.007812 271.277344 128.933594 276.292969 155.371094 279.113281 C 178.167969 281.542969 202.785156 281.054688 225.992188 280.164062 C 241.113281 279.582031 266.332031 271.785156 278.332031 261.535156 C 299.257812 243.664062 330.53125 211.578125 338.199219 198.683594 C 338.003906 195.179688 336.257812 192.667969 333.121094 191.398438 C 327.351562 189.066406 317.089844 191.253906 308.632812 199.960938 C 305.65625 203.019531 282.675781 223.589844 272.125 229.265625 C 260.183594 235.6875 238.332031 233.753906 217.203125 231.882812 C 207.898438 231.0625 199.085938 230.28125 191.539062 230.25 L 190.53125 230.25 C 189.042969 230.25 187.835938 229.046875 187.832031 227.558594 C 187.828125 226.074219 189.03125 224.867188 190.519531 224.859375 C 190.859375 224.859375 191.207031 224.859375 191.554688 224.859375 L 206.566406 224.867188 C 219.65625 224.886719 235.957031 224.945312 245.941406 218.523438 C 249.613281 216.160156 253.476562 211.550781 253.394531 207.664062 C 253.355469 205.824219 252.347656 204.351562 250.3125 203.160156 C 246.109375 200.699219 239.347656 201.933594 233.378906 203.027344 C 230.453125 203.558594 227.691406 204.066406 225.15625 204.191406 C 214.648438 204.726562 206.035156 203.109375 196.066406 201.238281 L 195.199219 201.078125 C 173.503906 197.015625 150.332031 194.507812 127.863281 203.597656 C 124.253906 205.058594 120.632812 206.769531 116.800781 208.582031 C 108.5 212.507812 99.914062 216.566406 91.070312 218.097656 C 73.507812 221.140625 62.78125 220.992188 47.925781 220.792969 C 43.835938 220.738281 39.605469 220.679688 34.777344 220.679688 C 33.289062 220.679688 32.082031 219.472656 32.082031 217.984375 C 32.082031 216.496094 33.289062 215.292969 34.777344 215.292969 C 39.644531 215.292969 43.890625 215.347656 48 215.402344 C 62.558594 215.605469 73.078125 215.746094 90.148438 212.789062 C 98.265625 211.386719 106.511719 207.484375 114.488281 203.714844 C 118.21875 201.949219 122.078125 200.125 125.835938 198.605469 C 149.65625 188.964844 174.769531 191.769531 196.195312 195.78125 L 197.0625 195.945312 C 206.691406 197.746094 215.007812 199.308594 224.882812 198.808594 C 227.0625 198.703125 229.660156 198.226562 232.40625 197.726562 C 239.296875 196.464844 247.109375 195.039062 253.042969 198.515625 C 257.695312 201.238281 258.738281 204.929688 258.792969 207.550781 C 258.921875 213.730469 253.738281 219.917969 248.867188 223.050781 C 245.296875 225.347656 241.148438 226.914062 236.707031 227.984375 C 250.015625 228.699219 262.429688 228.363281 269.566406 224.519531 C 279.5625 219.144531 302.195312 198.847656 304.753906 196.210938 C 313.832031 186.867188 326.324219 182.835938 335.148438 186.40625 C 340.535156 188.585938 343.625 193.3125 343.621094 199.375 C 343.621094 199.835938 343.503906 200.289062 343.277344 200.691406 C 335.476562 214.585938 301.167969 249.125 281.847656 265.628906 C 268.808594 276.761719 242.546875 284.917969 226.199219 285.546875 C 215.550781 285.957031 204.605469 286.28125 193.660156 286.28125 "/>
</g>
<path style=" stroke:none;fill-rule:nonzero;fill:rgb(100%,100%,100%);fill-opacity:1;" d="M 295.730469 135.613281 C 295.730469 144.035156 290.269531 150.867188 283.53125 150.867188 C 276.789062 150.867188 271.332031 144.035156 271.332031 135.613281 C 271.332031 127.1875 283.53125 106.800781 283.53125 106.800781 C 283.53125 106.800781 295.730469 127.1875 295.730469 135.613281 "/>
<path style=" stroke:none;fill-rule:nonzero;fill:rgb(10.198975%,9.408569%,10.978699%);fill-opacity:1;" d="M 283.53125 112.226562 C 279.65625 119.226562 274.03125 130.5 274.03125 135.613281 C 274.03125 142.539062 278.292969 148.171875 283.53125 148.171875 C 288.769531 148.171875 293.03125 142.539062 293.03125 135.613281 C 293.03125 130.5 287.40625 119.226562 283.53125 112.226562 Z M 283.53125 153.558594 C 275.3125 153.558594 268.628906 145.507812 268.628906 135.613281 C 268.628906 126.703125 279.925781 107.570312 281.214844 105.417969 C 281.699219 104.605469 282.582031 104.105469 283.53125 104.105469 C 284.480469 104.105469 285.359375 104.605469 285.847656 105.417969 C 287.136719 107.570312 298.429688 126.703125 298.429688 135.613281 C 298.429688 145.507812 291.746094 153.558594 283.53125 153.558594 "/>
</g>
</svg>
